<?xml version="1.0" encoding="UTF-8" standalone="no"?>
<svg
   height="256"
   viewBox="0 -960 10240 10240"
   width="256"
   version="1.1"
   id="svg868"
   sodipodi:docname="desktop.svg"
   inkscape:version="1.1.2 (0a00cf5339, 2022-02-04)"
   xmlns:inkscape="http://www.inkscape.org/namespaces/inkscape"
   xmlns:sodipodi="http://sodipodi.sourceforge.net/DTD/sodipodi-0.dtd"
   xmlns="http://www.w3.org/2000/svg"
   xmlns:svg="http://www.w3.org/2000/svg">
  <defs
     id="defs872">
    <clipPath
       clipPathUnits="userSpaceOnUse"
       id="clipPath11628">
      <path
         d="M 0,600 H 600 V 0 H 0 Z"
         id="path11626" />
    </clipPath>
    <clipPath
       clipPathUnits="userSpaceOnUse"
       id="clipPath11962">
      <path
         d="M 374.865,68.9297 H 587.754 V 16.1016 H 374.865 Z"
         id="path11960" />
    </clipPath>
  </defs>
  <sodipodi:namedview
     id="namedview870"
     pagecolor="#ffffff"
     bordercolor="#000000"
     borderopacity="1"
     inkscape:pageshadow="0"
     inkscape:pageopacity="0"
     inkscape:pagecheckerboard="0"
     showgrid="true"
     fit-margin-top="0"
     fit-margin-left="0"
     fit-margin-right="0"
     fit-margin-bottom="0"
     inkscape:zoom="1.6770833"
     inkscape:cx="58.434782"
     inkscape:cy="180.96894"
     inkscape:window-width="1920"
     inkscape:window-height="1024"
     inkscape:window-x="0"
     inkscape:window-y="0"
     inkscape:window-maximized="1"
     inkscape:current-layer="svg868">
    <inkscape:grid
       type="xygrid"
       id="grid9150"
       originx="239.99996"
       originy="240.00002" />
  </sodipodi:namedview>
  <g
     id="g14220"
     transform="matrix(7.1111111,0,0,7.1111111,1706.6667,7573.3333)">
    <circle
       style="fill:#ffffff;fill-opacity:0.880903;stroke:#000000;stroke-width:120"
       id="path13310"
       cx="480"
       cy="-480"
       r="660" />
    <g
       id="g13814"
       transform="translate(40,-1489.9418)">
      <path
         style="fill:#808080;fill-opacity:0.607108;stroke:#ffffff;stroke-width:35.5049"
         id="path10604"
         d="m 183.4767,1256.7144 c 113.0055,49.2238 151.5343,97.7202 282.1633,39.5744 29.9259,-13.3206 56.3157,-39.3081 59.6658,-66.2597 10.6701,-85.8423 -33.7938,-172.8144 -19.322,-258.3104 2.818,-16.64774 57.3337,0.46673 60.1486,17.11479 12.4774,73.79361 -13.0548,148.53541 -19.5822,222.80311 41.0272,28.8404 71.6421,71.2203 123.0816,86.521 95.4749,28.3992 121.4998,-58.6754 120.9258,-102.1753 -1.2868,-97.5069 -20.8288,-194.3325 -31.2432,-291.49881 C 733.2824,897.83634 613.968,1187.8919 640,1194.539 v 0 c 1.21,-9.5201 114.1326,-261.82599 -8.9181,-321.9867 -37.9117,-18.53534 -81.8513,-45.83398 -125.1611,-37.38448 -51.6967,10.0856 -78.6962,56.55484 -118.0443,84.83218 -38.4331,77.09185 -103.2708,148.994 -115.2992,231.2755 -3.7248,25.4796 63.8826,74.3855 74.1729,50.0526 6.044,-14.2919 108.8857,-250.89607 -23.1087,-286.8233 -44.6417,-12.15094 -92.543,-36.30894 -137.8539,-25.80743 -44.7326,10.36742 -64.1048,53.36198 -96.1571,80.04292 -25.8453,5.22827 68.001,293.20251 93.8462,287.97411 z" />
      <path
         d="m 120,680 80,160 H 320 L 240,680 h 80 l 80,160 H 520 L 440,680 h 80 l 80,160 H 720 L 640,680 h 120 q 33,0 56.5,23.5 Q 840,727 840,760 v 480 q 0,33 -23.5,56.5 Q 793,1320 760,1320 H 120 Q 87,1320 63.5,1296.5 40,1273 40,1240 V 760 Q 40,727 63.5,703.5 87,680 120,680 Z m 0,240 v 320 H 760 V 920 Z m 0,0 v 320 z"
         id="path866"
         style="fill:#000000;stroke:#ffffff" />
    </g>
  </g>
</svg>
